<svg xmlns="http://www.w3.org/2000/svg" viewBox="0 0 120 120" width="120" height="120">
<path fill="#f5f5f5" d="M 103.05,10 H 34.2 c -3.83,0 -6.95,3.123117 -6.95,6.979313 v 7.56176 h 3.41 28.48 44.04 v 61.568588 c 0,0.07029 -0.06,0.130548 -0.13,0.130548 H 91.37 v 6.848761 h 11.68 c 3.83,0 6.95,-3.133156 6.95,-6.979309 V 16.979313 C 110,13.123117 106.88,10 103.05,10 Z M 77.17,21.056437 c -2.1,0 -3.8,-1.70717 -3.8,-3.82607 0,-0.913838 0.36,-1.727254 0.91,-2.379995 0.69,-0.863628 1.71,-1.436032 2.89,-1.436032 1.18,0 2.2,0.572404 2.9,1.436032 0.54,0.652741 0.91,1.466157 0.91,2.379995 0,2.1189 -1.71,3.82607 -3.81,3.82607 z m 10.23,0 c -2.1,0 -3.81,-1.70717 -3.81,-3.82607 0,-0.913838 0.37,-1.727254 0.91,-2.379995 0.7,-0.863628 1.71,-1.436032 2.9,-1.436032 1.18,0 2.19,0.572404 2.9,1.436032 0.54,0.652741 0.9,1.466157 0.9,2.379995 0,2.1189 -1.71,3.82607 -3.8,3.82607 z m 10.22,0 c -2.1,0 -3.8,-1.70717 -3.8,-3.82607 0,-0.913838 0.36,-1.727254 0.91,-2.379995 0.7,-0.863628 1.71,-1.436032 2.89,-1.436032 1.19,0 2.2,0.572404 2.9,1.436032 0.54,0.652741 0.91,1.466157 0.91,2.379995 0,2.1189 -1.71,3.82607 -3.81,3.82607 z M 50.76,105.10946 V 96.9753 H 16.81 V 40.929906 c 0,-1.486243 1.21,-2.691303 2.69,-2.691303 h 39.64 c 1.47,0 2.68,1.20506 2.68,2.691303 v 12.50251 h 6.82 v -12.50251 c 0,-5.262101 -4.27,-9.540069 -9.51,-9.540069 H 19.5 c -5.24,0 -9.5,4.277968 -9.5,9.540069 v 59.479814 c 0,5.27214 4.26,9.54007 9.5,9.54007 h 32.66 c -0.71,-1.14481 -1.4,-2.67122 -1.4,-4.84033 z m -11.44,2.31974 c -1.16,0 -2.16,-0.55232 -2.86,-1.37578 -0.56,-0.66278 -0.95,-1.49628 -0.95,-2.45029 0,-2.10885 1.71,-3.81602 3.81,-3.81602 2.1,0 3.8,1.70717 3.8,3.81602 0,0.95401 -0.38,1.78751 -0.94,2.45029 -0.7,0.82346 -1.7,1.37578 -2.86,1.37578 z M 82.24,57.710383 H 59.89 c -2.69,0 -4.87,2.189195 -4.87,4.890541 V 105.10946 C 55.02,107.81081 57.2,110 59.89,110 h 22.35 c 2.68,0 4.87,-2.18919 4.87,-4.89054 V 62.600924 c 0,-2.701346 -2.19,-4.890541 -4.87,-4.890541 z M 60.13,62.851978 H 81.99 V 100.5001 H 60.13 Z m 8.5,42.136972 c 0,-1.35569 1.08,-2.44025 2.43,-2.44025 1.35,0 2.44,1.08456 2.44,2.44025 0,1.34566 -1.09,2.4503 -2.44,2.4503 -1.35,0 -2.43,-1.10464 -2.43,-2.4503 z"/>
<path fill="#263238" d="m 35.080196,75.054442 -2.86101,-0.847152 c -0.328314,-0.09413 -0.469014,-0.423574 -0.37521,-0.705959 l 6.378635,-22.13415 c 0.0938,-0.329449 0.422115,-0.470641 0.703527,-0.376513 l 2.861007,0.800087 c 0.281409,0.09413 0.469017,0.423574 0.375213,0.705959 l -6.378638,22.13415 c -0.0938,0.329449 -0.422118,0.470642 -0.703524,0.423578 z m -5.346804,-5.318221 2.01678,-2.164941 c 0.234504,-0.235321 0.234504,-0.611831 0,-0.800087 l -4.268064,-3.765111 4.268064,-3.765111 c 0.234504,-0.188256 0.234504,-0.564767 0,-0.800088 l -2.01678,-2.164939 c -0.234504,-0.235321 -0.562818,-0.235321 -0.797328,-0.04706 l -6.756667,6.353628 c -0.239196,0.235317 -0.239196,0.611831 0,0.847149 l 6.756667,6.353627 c 0.23451,0.188257 0.562824,0.188257 0.797328,-0.04706 z m 15.336875,0.04706 6.753853,-6.353629 c 0.234507,-0.235317 0.234507,-0.61183 0,-0.847147 L 45.070267,56.22888 c -0.23451,-0.188257 -0.562821,-0.188257 -0.797331,0.04706 l -2.016774,2.16494 c -0.23451,0.23532 -0.23451,0.61183 0,0.800086 l 4.268058,3.765112 -4.268058,3.76511 c -0.23451,0.188256 -0.23451,0.564767 0,0.800088 l 2.016774,2.16494 c 0.23451,0.235321 0.562821,0.235321 0.797331,0.04706 z"/>
</svg>
