<?xml version="1.0" encoding="utf-8"?>
<svg width="100" height="100" viewBox="0 0 256 256" version="1.1" xmlns="http://www.w3.org/2000/svg">
  <circle fill="#263238" r="128" cx="128" cy="128"/>
  <path fill="#fff" d="M 34.324 119.181 C 41.779 119.181 45.256 115.707 44.746 108.754 L 43.474 88.786 C 43.305 85.309 43.73 82.214 44.746 79.501 C 45.763 76.787 47.288 74.499 49.321 72.632 C 51.441 70.682 53.939 69.199 56.817 68.18 C 59.784 67.162 63.091 66.655 66.732 66.655 L 75.377 66.655 L 75.377 81.28 L 68.892 81.28 C 65.841 81.28 63.47 82.002 61.775 83.446 C 60.081 84.884 59.318 87.173 59.489 90.312 L 60.759 110.28 C 61.015 115.026 59.617 118.799 56.566 121.6 C 53.601 124.396 49.618 125.88 44.618 126.049 L 44.618 126.684 C 49.702 126.856 53.727 128.422 56.691 131.392 C 59.656 134.275 61.015 138.089 60.759 142.84 L 59.489 162.678 C 59.318 165.478 60.081 167.68 61.775 169.293 C 63.555 170.819 65.93 171.581 68.892 171.581 L 75.377 171.581 L 75.377 186.335 L 66.732 186.335 C 63.176 186.335 59.912 185.784 56.947 184.681 C 53.98 183.665 51.441 182.18 49.321 180.229 C 47.288 178.281 45.719 175.908 44.618 173.107 C 43.604 170.309 43.22 167.171 43.474 163.697 L 44.746 144.366 C 45 140.89 44.278 138.26 42.586 136.476 C 40.975 134.7 38.221 133.809 34.324 133.809 L 19.2 133.809 L 19.2 119.181 Z M 180.623 186.335 L 180.623 171.581 L 187.108 171.581 C 190.159 171.581 192.53 170.86 194.225 169.418 C 196.004 167.98 196.808 165.729 196.639 162.678 L 195.369 142.71 C 195.031 137.964 196.344 134.188 199.309 131.392 C 202.36 128.594 206.382 127.109 211.382 126.94 L 211.382 126.305 C 206.298 126.134 202.273 124.608 199.309 121.725 C 196.344 118.758 195.031 114.9 195.369 110.149 L 196.639 90.312 C 196.808 87.429 196.004 85.222 194.225 83.697 C 192.448 82.086 190.072 81.28 187.108 81.28 L 180.623 81.28 L 180.623 66.655 L 189.396 66.655 C 192.955 66.655 196.173 67.205 199.053 68.308 C 202.022 69.325 204.518 70.81 206.551 72.76 C 208.673 74.711 210.237 77.082 211.254 79.882 C 212.357 82.593 212.78 85.691 212.526 89.167 L 211.254 108.623 C 211 112.1 211.679 114.729 213.286 116.513 C 214.984 118.205 217.779 119.055 221.678 119.055 L 236.8 119.055 L 236.8 133.681 L 221.678 133.681 C 214.221 133.681 210.744 137.201 211.254 144.236 L 212.526 164.078 C 212.695 167.468 212.27 170.522 211.254 173.235 C 210.237 176.033 208.712 178.406 206.679 180.357 C 204.646 182.308 202.148 183.79 199.183 184.809 C 196.216 185.828 192.955 186.335 189.396 186.335 Z M 85.286 185.006 C 85.286 185.006 85.286 185.006 86.74 173.706 C 87.519 167.98 88.197 163.159 88.241 162.99 C 88.44 162.258 89.393 161.72 90.148 161.912 C 90.368 161.971 94.052 164.375 98.516 167.373 C 105.564 172.116 106.511 172.785 106.639 173.117 C 106.88 173.729 106.831 174.252 106.486 174.748 C 106.199 175.16 105.449 175.613 96.881 180.554 C 87.34 186.127 87.34 186.127 87.34 186.127 C 85.555 186.499 85.548 186.504 85.286 185.006 Z M 109.714 169.303 C 109.437 169.244 99.502 162.66 94.246 159.055 C 92.431 157.806 92.26 157.66 92.042 157.184 C 91.756 156.472 91.645 156.134 91.914 155.382 L 115.264 120.594 C 140.649 82.785 138.947 85.215 140.058 85.107 C 140.324 85.071 140.726 85.105 140.948 85.164 C 141.181 85.222 144.85 87.621 149.816 90.97 C 157.747 96.305 158.303 96.701 158.52 97.147 C 158.828 97.766 158.781 98.404 158.415 98.698 C 158.277 98.813 147.645 114.616 134.794 133.816 C 121.946 153.014 111.301 168.835 111.15 168.968 C 110.825 169.249 110.167 169.4 109.716 169.306 Z M 161.462 92.933 C 161.234 92.933 160.929 92.867 160.796 92.808 C 160.658 92.746 156.756 90.158 152.118 87.055 C 144.415 81.892 143.672 81.367 143.416 80.919 C 143.084 80.328 143.04 79.736 143.278 79.068 C 143.514 78.4 150.226 68.498 150.743 68.045 C 151.291 67.571 151.795 67.18 152.632 66.952 C 153.467 66.721 153.884 66.693 154.276 66.665 C 154.66 66.627 155.192 66.708 155.643 66.813 C 156.421 66.99 156.728 67.182 162.629 71.122 C 166.024 73.39 168.996 75.451 169.236 75.702 C 169.477 75.953 169.395 75.796 170.04 76.792 C 170.688 77.791 170.714 79.196 170.714 79.754 C 170.716 80.312 170.616 80.504 170.491 80.968 C 170.281 81.751 170.035 82.153 166.715 87.043 C 164.762 89.92 163.036 92.37 162.877 92.488 C 162.473 92.785 161.948 92.948 161.462 92.931 Z"/>
  <path fill="#e47234" d="M 44.769 217.106 C 42.911 215.327 41.219 213.558 41.009 213.174 C 40.681 212.575 41.848 211.284 49.738 203.525 C 59.722 193.713 60.145 193.423 63.247 194.24 C 64.538 194.578 65.759 195.551 69.719 199.396 C 72.404 202.002 74.762 204.134 74.959 204.134 C 75.162 204.134 77.258 202.227 79.621 199.892 C 84.785 194.79 85.77 194.132 88.22 194.132 C 90.668 194.132 91.653 194.79 96.819 199.892 C 99.18 202.227 101.286 204.134 101.499 204.134 C 101.711 204.134 103.903 202.14 106.368 199.703 C 108.833 197.263 111.327 195.021 111.91 194.719 C 113.055 194.125 115.261 193.976 116.687 194.401 C 117.181 194.547 119.788 196.797 122.481 199.401 C 125.174 202.004 127.616 204.134 127.91 204.134 C 128.205 204.134 130.463 202.14 132.931 199.703 C 135.396 197.263 137.897 195.018 138.483 194.714 C 139.858 193.999 142.454 193.999 143.826 194.714 C 144.415 195.018 146.913 197.263 149.379 199.703 C 151.844 202.14 154.102 204.134 154.396 204.134 C 154.693 204.134 157.051 202.089 159.642 199.588 C 162.23 197.087 164.718 194.857 165.166 194.632 C 166.31 194.053 169.242 194.117 170.447 194.742 C 171.003 195.028 173.473 197.263 175.939 199.7 C 178.406 202.14 180.577 204.134 180.767 204.134 C 180.954 204.134 183.337 201.997 186.063 199.383 C 191.606 194.066 192.73 193.467 195.681 194.235 C 197.041 194.591 198.548 195.901 206.157 203.346 C 211.041 208.125 215.04 212.262 215.04 212.539 C 215.04 213.294 208.658 219.553 207.624 219.807 C 206.856 219.999 205.898 219.21 200.689 214.1 C 197.363 210.842 194.391 208.174 194.081 208.174 C 193.772 208.174 191.501 210.168 189.036 212.608 C 186.57 215.045 184.069 217.29 183.48 217.597 C 182.892 217.902 181.691 218.153 180.81 218.153 C 179.93 218.153 178.729 217.902 178.14 217.597 C 177.551 217.29 175.05 215.045 172.585 212.608 C 170.12 210.168 167.857 208.174 167.552 208.174 C 167.25 208.174 164.808 210.307 162.122 212.913 C 156.882 217.997 155.722 218.665 153.134 218.092 C 151.485 217.725 151.539 217.772 146.271 212.49 C 143.613 209.823 141.678 208.174 141.22 208.174 C 140.759 208.174 138.557 210.03 135.529 212.977 C 128.148 220.152 127.557 220.152 120.228 212.977 C 117.535 210.337 115.08 208.177 114.77 208.177 C 114.46 208.177 112.358 210.007 110.1 212.244 C 105.362 216.929 104.361 217.71 102.577 218.104 C 100.032 218.668 98.847 217.979 93.627 212.915 C 90.944 210.309 88.499 208.177 88.197 208.177 C 87.895 208.177 85.627 210.171 83.162 212.611 C 80.696 215.048 78.2 217.293 77.609 217.6 C 77.023 217.907 75.82 218.156 74.941 218.156 C 74.061 218.156 72.858 217.907 72.266 217.6 C 71.68 217.293 69.181 215.048 66.714 212.611 C 64.248 210.171 61.972 208.177 61.66 208.177 C 61.345 208.177 58.478 210.749 55.291 213.896 C 52.106 217.039 49.193 219.779 48.824 219.981 C 48.256 220.291 47.593 219.814 44.769 217.111 Z"/>
</svg>